<?xml version='1.0' encoding='utf-8'?>
<svg xmlns="http://www.w3.org/2000/svg" width="256" height="256" viewBox="0 0 256 256" version="1.2" baseProfile="tiny"><rect x="0" y="0" width="256" height="256" fill="white" /><g transform="translate(0.0,44.730030368763565) scale(0.11106290672451193)"><path d="M619.5,1237.59l-212.39-.5c-37.57-.09-70.47-25.21-80.45-61.43L3.58,2.91h479.08c38.65,0,72.56,25.75,82.94,62.98l187.92,685.32-134.02,486.38Z" fill="#0d1b2b" /><path d="M954.39,1438.42l-200.87-687.21L940.42,68.5c10.6-38.73,45.8-65.58,85.95-65.58h145.05c38.65,0,72.56,25.75,82.94,62.98l393.11,1433.61h-611.58c-37.72,0-70.92-24.88-81.5-61.09Z" fill="#0d1b2b" /><path d="M2163.76,509.88L2303.44,2.92h-479.08c-38.65,0-72.56,25.75-82.94,62.98l-121.74,443.99h544.09Z" fill="#00e3b5" /></g></svg>